<?xml version="1.0" encoding="UTF-8"?>
<svg version="1.1" xmlns="http://www.w3.org/2000/svg" width="32" height="32">
<path d="M0 0 C4.8136758 0.943858 8.03170499 1.95265023 11.12109375 6.08203125 C12.84414808 9.84211871 12.8275552 13.99325356 12 18 C10.46875 19.80078125 10.46875 19.80078125 9 21 C13.85076152 22.20331407 13.85076152 22.20331407 18.3125 20.5625 C18.869375 20.046875 19.42625 19.53125 20 19 C20.66 19 21.32 19 22 19 C21.70488433 21.85278483 21.18767059 22.83578823 19 24.75 C14.89206982 26.46163757 11.38831941 26.69289254 7 26 C3.4375 24.3125 3.4375 24.3125 1 22 C0.625 19.25 0.625 19.25 1 17 C-1.66169042 18.4595774 -1.66169042 18.4595774 -4 21 C-4.45442324 23.80138565 -4.23849927 26.13800875 -4 29 C-4.99 29 -5.98 29 -7 29 C-8.29339663 22.18027234 -7.67235604 19.07885922 -3.8125 13.1875 C-0.74730019 11.17926564 2.37764165 11.23370054 6 11 C6.33 11.33 6.66 11.66 7 12 C6.9688059 9.13265479 6.9688059 9.13265479 6 6 C3.02236957 3.73674754 3.02236957 3.73674754 0 2 C0 1.34 0 0.68 0 0 Z M1 16 C2.98 16.99 2.98 16.99 5 18 C5.33 17.34 5.66 16.68 6 16 C4.35 16 2.7 16 1 16 Z " fill="#7668C8" transform="translate(9,1)"/>
</svg>
